 <svg id="Capa_1" data-name="Capa 1" xmlns="http://www.w3.org/2000/svg" viewBox="0 0 1558.84 597.67"><title>IMAGOLOGO</title><path d="M308.43,867.22q-9,.57-18.21.57h-.11q-9.24,0-18.32-.57Z" transform="translate(-168.49 -271.5)" style="fill:none;stroke:#000;stroke-miterlimit:10"/><path d="M905.67,867.22q-9.09.57-18.32.57c-6.16,0-12.28-.19-18.32-.57Z" transform="translate(-168.49 -271.5)" style="stroke:#000;stroke-miterlimit:10"/><path d="M588.73,570.62a298.59,298.59,0,0,1-280.3,298H169V747.47H290.22V744.9a175.64,175.64,0,0,0,0-351.26v-.41H169V272h121.2A298.51,298.51,0,0,1,588.73,570.62Z" transform="translate(-168.49 -271.5)" style="stroke:#000;stroke-miterlimit:10"/><path d="M916.62,867.81c-1.71.21-89.33.78-128.69.86q-3.45-9.48-6.89-18.94-18.64-51.12-37.22-102.26-20.51-56.31-41-112.59l-44.11-121.2h129q22,60.6,44.13,121.2,19.9,54.74,39.84,109.45c.37,1.06.75,2.08,1.13,3.14Q894.7,807.62,916.62,867.81Z" transform="translate(-168.49 -271.5)" style="stroke:#000;stroke-miterlimit:10"/><path d="M743.88,393.23h-129q-22.1-60.6-44.13-121.23h129q9.48,26.07,19,52.16Z" transform="translate(-168.49 -271.5)" style="stroke:#000;stroke-miterlimit:10"/><text transform="translate(922.96 242.62)" style="font-size:144.93881225585938px;font-family:MonumentGrotesk-Regular, Monument Grotesk">DI<tspan x="137.93" y="0" style="letter-spacing:-0.028810649024972865em">-</tspan><tspan x="191.15" y="0">S</tspan><tspan x="283.72" y="0" style="letter-spacing:-0.09619495699942414em">P</tspan><tspan x="359.73" y="0" style="letter-spacing:-0.02685669948866741em">A</tspan><tspan x="449.75" y="0">CE</tspan></text><text transform="translate(923.52 409.89)" style="font-size:198.56617736816406px;font-family:MonumentGrotesk-Bold, Monument Grotesk;font-weight:700"><tspan style="letter-spacing:-0.17578168315283374em">.</tspan><tspan x="14.06" y="0">T</tspan><tspan x="135.74" y="0" style="letter-spacing:-0.028805140121597763em">E</tspan><tspan x="249.66" y="0">CH</tspan></text></svg>